<svg xmlns="http://www.w3.org/2000/svg" viewBox="0 0 398.502 398.502" style="enable-background:new 0 0 398.502 398.502" xml:space="preserve"><path style="fill:#3e81c8" d="m227.741 360.947-6.013 26h-44.974l-6.013-26zM254.751 325.177l-6.684 28h-97.632l-6.684-28z"/><path style="fill:#eb7830" d="M167.751 254.827h63v63.74h-63zM237.161 193.872l-6.44 55.56h-62.94l-6.44-55.56 7.5 3.91c1.57 1.45 8.66 2.2 10.79 2.11 2.13-.1 4.13-1.04 5.56-2.62l14.06-12.53 14.05 12.53a8.021 8.021 0 0 0 5.57 2.62c.12 0 .24.01.36.01 2.01 0 8.94-.75 10.42-2.12l7.51-3.91z"/><path style="fill:#f5c525" d="M297.261 176.372c0 14.23-3.12 27.88-9.29 40.57-14.55 29.97-28.07 67.25-29.42 101.02h-22.34v-65.53l8.93-65.49c.62-4.37 3.58-8.42-.8-9.04a7.97 7.97 0 0 0-6.54 2.04l-18.05 16.61-14.57-16.1c-1.52-1.67-3.67-2.63-5.93-2.63s-4.42.96-5.93 2.63l-14.58 16.1-18.04-16.62c-3.25-2.99-3.31-2.78-6.31.47a7.963 7.963 0 0 0-2.03 6.54l9.93 65.49v65.53h-22.35c-1.14-28.07-10.35-63.35-28.73-99.64-6.57-12.98-9.93-26.99-9.97-41.65-.16-50.74 45.97-97.6 96.68-98.3 51.91-.71 99.34 46.27 99.34 98z"/><path style="fill:#231f20" d="M199.251 67.362c-.52 0-1.03 0-1.55.01-59.44.82-107.65 49.88-107.46 109.35.05 17.18 3.99 33.6 11.7 48.83 18.5 36.55 27.12 66.21 27.12 93.36v2.05c0 .8.13 1.58.35 2.31v.02c.01.03.02.05.03.08l11.01 36.34a7.999 7.999 0 0 0 7.65 5.68h10.23l8.19 27.4a7.995 7.995 0 0 0 7.66 5.71h50.14c3.53 0 6.65-2.32 7.66-5.71l8.19-27.4h10.23c3.52 0 6.63-2.31 7.65-5.68l11.02-36.34c0-.03.01-.05.02-.08v-.02c.22-.73.35-1.51.35-2.31v-2.51c0-32.53 13.42-64.65 27.92-94.52 7.24-14.89 10.9-30.89 10.9-47.56 0-60.11-48.9-109.01-109.01-109.01zm19.11 315.14h-38.22l-5.11-17.11h48.44l-5.11 17.11zm26.1-33.11h-90.42l-6.19-20.43h102.8l-6.19 20.43zm-71.68-104.96-6.44-45.56 7.5 6.91a8.032 8.032 0 0 0 5.79 2.11c2.13-.1 4.13-1.04 5.56-2.62l14.06-15.53 14.05 15.53a8.021 8.021 0 0 0 5.57 2.62c.12 0 .24.01.36.01 2.01 0 3.94-.75 5.42-2.12l7.51-6.91-6.44 45.56h-52.94zm52.43 16v52.53h-51.92v-52.53h51.92zm57.76-43.49c-14.55 29.97-28.07 62.25-29.42 96.02h-12.34v-60.53l9.93-73.49a7.996 7.996 0 0 0-6.8-9.04 7.97 7.97 0 0 0-6.54 2.04l-18.05 16.61-14.57-16.1c-1.52-1.67-3.67-2.63-5.93-2.63s-4.42.96-5.93 2.63l-14.58 16.1-18.04-16.62c-3.25-2.99-8.31-2.78-11.31.47a7.963 7.963 0 0 0-2.03 6.54l9.93 73.49v60.53h-12.35c-1.14-28.07-10.35-58.35-28.73-94.64-6.57-12.98-9.93-26.99-9.97-41.65-.16-50.74 40.97-92.6 91.68-93.3 51.91-.71 94.34 41.27 94.34 93 0 14.23-3.12 27.88-9.29 40.57zM67.602 175.614a8 8 0 0 0-8-8H31.637a8 8 0 0 0 0 16h27.965a8 8 0 0 0 8-8zM366.865 167.614H338.9a8 8 0 0 0 0 16h27.965a8 8 0 0 0 0-16zM82.311 98.861 58.093 84.878a8 8 0 0 0-8 13.856l24.218 13.983a7.998 7.998 0 0 0 10.929-2.928 8 8 0 0 0-2.929-10.928zM348.409 252.493 324.19 238.51a8 8 0 0 0-8 13.856l24.219 13.983a7.998 7.998 0 0 0 10.929-2.928 8.001 8.001 0 0 0-2.929-10.928zM122.498 58.674a7.998 7.998 0 0 0 10.929 2.928 8 8 0 0 0 2.928-10.928l-13.982-24.218a8 8 0 0 0-13.856 8l13.981 24.218zM199.251 43.965a8 8 0 0 0 8-8V8a8 8 0 0 0-16 0v27.965a8 8 0 0 0 8 8zM265.076 61.603a7.998 7.998 0 0 0 10.929-2.928l13.982-24.218a8 8 0 0 0-13.856-8l-13.982 24.218a7.997 7.997 0 0 0 2.927 10.928zM320.198 113.791a7.97 7.97 0 0 0 3.993-1.073l24.219-13.983a8 8 0 0 0-8-13.856l-24.22 13.982a8 8 0 0 0 4.008 14.93zM74.311 238.51l-24.218 13.983a8 8 0 0 0 4.008 14.929 7.97 7.97 0 0 0 3.993-1.073l24.218-13.983a8 8 0 1 0-8.001-13.856z"/></svg>